<svg width="62" height="23" xmlns="http://www.w3.org/2000/svg"><path d="M10.36 11a2.23 2.23 0 0 0-1.7.04c-.4.18-.7.45-.93.8a2.11 2.11 0 0 0 .36 2.65 2.42 2.42 0 0 0 1.4.63c.52 0 1-.21 1.45-.63.47-.44.7-.96.7-1.56A2.12 2.12 0 0 0 10.36 11ZM8.93 9.24a3.89 3.89 0 0 1 2.31.36c.28.15.43.22.46.22.03 0 .04-.1.04-.33v-.32h1.6v7.54h-1.6v-.65l-.46.23a3.9 3.9 0 0 1-3.57-.02 3.77 3.77 0 0 1 1.22-7.03ZM15.16 16.63V9.09h1.68v.52c0 .35.03.53.1.53.03 0 .07-.03.1-.09.06-.08.29-.2.68-.37.4-.19.72-.31.99-.38.28-.07.63-.1 1.07-.1.45 0 .79.03 1.03.1a4.51 4.51 0 0 1 3.4 3.57c.05.36.08 1.03.08 2.01v1.75h-1.6v-1.47c0-.84-.02-1.44-.08-1.79a2.83 2.83 0 0 0-1.39-2.12 2.87 2.87 0 0 0-1.93-.4c-.99.21-1.71.77-2.16 1.68l-.25.53c0 .4 0 1-.02 1.8-.02.79-.02 1.38-.02 1.77h-1.68ZM27.27 8.37V6.36h1.6v2.01h1.11v1.6h-1.11v6.66h-1.6V9.97h-1.05v-1.6h1.05ZM31.85 16.71V6.44h1.6V8.3c0 1.23.01 1.85.04 1.85s.2-.1.5-.27a4.51 4.51 0 0 1 6.62 2.47c.1.27.16 1.07.19 2.42l.04 1.95h-1.6l-.04-1.78a8.84 8.84 0 0 0-.21-2.25 2.75 2.75 0 0 0-1.07-1.32 2.75 2.75 0 0 0-2.06-.49 2.87 2.87 0 0 0-2.35 2.33c-.01.21-.03.76-.04 1.64l-.02 1.87h-1.6ZM42.7 16.63V9h1.6v1.05l.24-.14a5.04 5.04 0 0 1 2.28-.86L47.3 9v.8c0 .38-.02.61-.05.7 0 .07-.06.11-.14.14-.63.14-1.1.32-1.43.53-.32.24-.57.47-.74.69a2.4 2.4 0 0 0-.48.97c-.05.29-.1.95-.12 1.97l-.03 1.83h-1.6ZM53.8 10.98a2.01 2.01 0 0 0-2.33.44c-.42.4-.63.89-.63 1.45 0 .22.04.46.12.71.37.94 1.02 1.4 1.96 1.4a2.1 2.1 0 0 0 1.45-.52c.39-.36.61-.83.67-1.4v-.17c0-.9-.42-1.53-1.24-1.91ZM52.12 9.2a3.61 3.61 0 0 1 2.5.32c.66.3 1.17.77 1.53 1.39.38.6.57 1.25.57 1.95 0 1.02-.35 1.89-1.05 2.6a3.55 3.55 0 0 1-2.71 1.18 3.64 3.64 0 0 1-2.67-1.11 3.65 3.65 0 0 1-1.09-2.7c0-.87.27-1.65.82-2.32a3.56 3.56 0 0 1 2.1-1.3Z" fill="#2A364E"/></svg>