<svg width="58" height="58" fill="none" xmlns="http://www.w3.org/2000/svg"><path d="M50.6 16.4 29.3 6h-.6L7.4 16.4c-.2 0-.4.3-.4.6v25c0 .2.2.5.4.6l21.3 10.3a.7.7 0 0 0 .6 0l21.3-10.3c.2-.1.4-.4.4-.6V17c0-.3-.2-.5-.4-.6ZM29 7.4 48.7 17 43 19.7H43l-19.6-9.5L29 7.5ZM21.7 11l19.7 9.5-4 2-19.7-9.6 4-2ZM42 21.8V29l-3.8 1.8v-7.2l3.8-1.8Zm7.7 19.7-20 9.7V27.7l4.8-2.3a.7.7 0 1 0-.6-1.2L29 26.5l-2-1a.7.7 0 1 0-.5 1.3l1.8.9v23.5l-20-9.7V18.1l15.3 7.3a.7.7 0 0 0 .9-.3c.1-.4 0-.8-.3-1L9.2 17l6.9-3.3 20.7 10v8.2a.7.7 0 0 0 1 .6l5-2.5c.3 0 .5-.3.5-.6v-8.3l6.3-3v23.4Z" fill="#2A364E"/><path d="m14 38.9-3-1.5a.7.7 0 1 0-.7 1.2l3.2 1.5a.7.7 0 0 0 .9-.3c.1-.4 0-.8-.4-1ZM17 37l-6-3a.7.7 0 1 0-.7 1.3l6 3A.7.7 0 1 0 17 37Z" fill="#2A364E"/></svg>