<svg width="58" height="58" fill="none" xmlns="http://www.w3.org/2000/svg"><path d="M54.535 43.81h-3.59v-1.567h3.091a9.686 9.686 0 0 0 0-7.837H21.162c-1.59 0-9.814.62-12.218 1.553l-.415.16c-1.475.571-5.394 2.086-5.394 2.99v2.35a.784.784 0 0 0 .784.784H6.27v1.568H3.92a2.352 2.352 0 0 1-2.352-2.352v-2.35c0-1.833 2.773-3.05 6.397-4.451l.412-.157c2.787-1.085 11.4-1.663 12.786-1.663h33.373a.784.784 0 0 1 .706.435 11.278 11.278 0 0 1 0 10.104.784.784 0 0 1-.706.434Z" fill="#2A364E"/><path d="M15.675 42.243h4.46v1.568h-4.46v-1.568Z" fill="#2A364E"/><path d="M15.68 42.247h26v1.57h-26v-1.57ZM15.89 34.767l-.43-1.508c1.803-.515 3.066-1.645 4.526-2.961C22.613 27.938 25.88 25 33.703 25c7.477 0 11.365 3.116 14.21 5.392 1.706 1.367 3.053 2.446 4.6 2.446v1.567c-2.097 0-3.71-1.292-5.58-2.79-2.806-2.248-6.303-5.047-13.23-5.047-7.221 0-10.115 2.6-12.669 4.897-1.538 1.381-2.99 2.687-5.143 3.302Z" fill="#2A364E"/><path d="M46.243 48.514a5.487 5.487 0 1 1 5.487-5.486 5.492 5.492 0 0 1-5.487 5.486Zm0-9.405a3.919 3.919 0 1 0 0 7.837 3.919 3.919 0 0 0 0-7.837ZM10.973 48.514a5.487 5.487 0 1 1 5.486-5.486 5.493 5.493 0 0 1-5.486 5.486Zm0-9.405a3.92 3.92 0 1 0 0 7.838 3.92 3.92 0 0 0 0-7.838ZM32.135 25.796h1.568v7.826h-1.568v-7.826Z" fill="#2A364E"/></svg>