<svg width="23" height="23" fill="none" xmlns="http://www.w3.org/2000/svg"><path d="M8.039 13.431h10.249c.252 0 .474-.17.543-.416l2.26-8.038A.582.582 0 0 0 21 4.474a.562.562 0 0 0-.452-.228H6.736l-.404-1.847a.567.567 0 0 0-.552-.45H2.39a.57.57 0 0 0-.566.574.57.57 0 0 0 .565.574h2.938l2.04 9.328c-.6.265-1.022.873-1.022 1.58 0 .95.76 1.722 1.695 1.722h10.248a.57.57 0 0 0 .565-.574.57.57 0 0 0-.565-.574H8.04a.57.57 0 0 1-.565-.574.57.57 0 0 1 .564-.574Zm11.76-8.037-1.938 6.889H8.494l-1.507-6.89h12.812Z" fill="#2A364E"/><path d="M7.335 17.564A1.84 1.84 0 0 0 9.173 19.4a1.84 1.84 0 0 0 1.837-1.837 1.84 1.84 0 0 0-1.837-1.837 1.84 1.84 0 0 0-1.838 1.837Zm1.838-.613a.613.613 0 1 1-.002 1.227.613.613 0 0 1 .002-1.227ZM15.602 17.564A1.84 1.84 0 0 0 17.44 19.4a1.84 1.84 0 0 0 1.837-1.837 1.84 1.84 0 0 0-1.837-1.837 1.84 1.84 0 0 0-1.837 1.837Zm1.837-.613a.613.613 0 1 1-.001 1.227.613.613 0 0 1 .001-1.227Z" fill="#2A364E"/></svg>