<svg width="21" height="21" viewBox="0 0 21 21" fill="none" xmlns="http://www.w3.org/2000/svg">
<path d="M19.3334 1.75H2.54143C2.24526 1.74945 1.97375 1.91087 1.83836 2.16793C1.70111 2.42844 1.7252 2.74216 1.90054 2.98009L8.05241 11.4348C8.05447 11.4377 8.05671 11.4404 8.05876 11.4433C8.28229 11.7377 8.4031 12.0943 8.40385 12.4608V19.3538C8.40254 19.5581 8.48471 19.7541 8.63223 19.8989C8.77975 20.0437 8.98031 20.125 9.18945 20.125C9.29589 20.125 9.40103 20.1042 9.49925 20.0645L12.9561 18.7785C13.2659 18.6863 13.4715 18.4012 13.4715 18.0578V12.4608C13.4721 12.0944 13.5931 11.7377 13.8164 11.4433C13.8185 11.4404 13.8207 11.4377 13.8228 11.4348L19.9745 2.97973C20.1498 2.74198 20.1739 2.42844 20.0366 2.16793C19.9013 1.91087 19.6297 1.74945 19.3334 1.75ZM13.0456 10.8908C12.702 11.3457 12.5162 11.8957 12.5151 12.4608V17.9445L9.35994 19.1181V12.4608C9.35882 11.8957 9.17302 11.3457 8.82924 10.8908L2.85683 2.68277H19.0182L13.0456 10.8908Z" fill="#2A364E"/>
</svg>
