<svg width="24" height="24" xmlns="http://www.w3.org/2000/svg"><path d="M12.65 20h-.15a52.13 52.13 0 0 1-3.32-.1 4.43 4.43 0 0 1-2.56-.96 4.1 4.1 0 0 1-1.38-2.23c-.2-.8-.21-1.59-.22-2.35A164.15 164.15 0 0 1 5 12.5l.02-1.86c0-.76.02-1.55.22-2.36.24-.92.7-1.67 1.38-2.22.7-.58 1.6-.91 2.56-.97A52.27 52.27 0 0 1 12.5 5a52.48 52.48 0 0 1 3.32.1 4.11 4.11 0 0 1 3.94 3.2c.2.79.21 1.58.22 2.34L20 12.5l-.02 1.86a9.85 9.85 0 0 1-.22 2.35c-.24.93-.7 1.68-1.38 2.23-.7.57-1.6.91-2.56.97a51.85 51.85 0 0 1-3.17.09Zm-.15-1.17a51.12 51.12 0 0 0 3.25-.1 2.96 2.96 0 0 0 2.87-2.31c.17-.67.18-1.38.2-2.08a161.14 161.14 0 0 0 0-3.68c-.02-.7-.03-1.42-.2-2.08a2.95 2.95 0 0 0-.98-1.61 3.23 3.23 0 0 0-1.9-.7 51.2 51.2 0 0 0-3.24-.1 51.07 51.07 0 0 0-3.25.1 2.96 2.96 0 0 0-2.87 2.32c-.17.65-.18 1.37-.2 2.07a161.54 161.54 0 0 0 0 3.68c.02.7.03 1.41.2 2.08.17.68.5 1.22.98 1.61.52.43 1.16.66 1.9.7 1.02.07 2.09.1 3.24.1Zm-.03-2.67a3.67 3.67 0 0 1-3.66-3.66 3.67 3.67 0 0 1 3.66-3.66 3.67 3.67 0 0 1 3.66 3.66 3.67 3.67 0 0 1-3.66 3.66Zm0-6.15a2.5 2.5 0 0 0-2.49 2.49 2.5 2.5 0 0 0 2.5 2.49 2.5 2.5 0 0 0 2.48-2.49 2.5 2.5 0 0 0-2.49-2.49Zm4.07-2.34a.88.88 0 1 0 0 1.75.88.88 0 0 0 0-1.75Z" fill="#ECEBEB"/></svg>