<svg width="24" height="24" fill="none" xmlns="http://www.w3.org/2000/svg"><path d="M12 0C7.348 0 3.562 3.785 3.562 8.438a8.42 8.42 0 0 0 1.26 4.436l6.698 10.794a.703.703 0 0 0 .597.332h.006a.703.703 0 0 0 .597-.342l6.527-10.898a8.427 8.427 0 0 0 1.19-4.322C20.438 3.785 16.652 0 12 0Zm6.04 12.038-5.933 9.908-6.09-9.813A7.022 7.022 0 0 1 4.96 8.438C4.96 4.56 8.123 1.396 12 1.396c3.877 0 7.036 3.163 7.036 7.04a7.025 7.025 0 0 1-.995 3.601Z" fill="#ECEBEB"/><path d="M12 4.219a4.224 4.224 0 0 0-4.219 4.218A4.213 4.213 0 0 0 12 12.657a4.21 4.21 0 0 0 4.219-4.22A4.224 4.224 0 0 0 12 4.22Zm0 7.04a2.824 2.824 0 0 1-2.822-2.822A2.832 2.832 0 0 1 12 5.617a2.828 2.828 0 0 1 2.817 2.822A2.819 2.819 0 0 1 12 11.258Z" fill="#ECEBEB"/></svg>