<svg width="25" height="16" fill="none" xmlns="http://www.w3.org/2000/svg"><path d="M6.58 6.94c-.46 0-.82.15-.82.15l-.1.58s.3-.12.74-.12c.25 0 .43.03.43.23 0 .13-.02.17-.02.17l-.29-.01c-.58 0-1.2.24-1.2 1 0 .59.4.72.66.72.47 0 .68-.3.69-.3l-.02.25h.6l.26-1.86c0-.79-.7-.81-.93-.81ZM6.25 9.1c-.21 0-.27-.16-.27-.26 0-.18.1-.4.6-.4l.14.01c.02.11-.07.65-.47.65Zm2.47-1.54.46.03.09-.6s-.24-.05-.62-.05c-.5 0-1 .2-1 .88 0 .78.84.7.84 1.02 0 .22-.24.24-.42.24-.32 0-.6-.1-.6-.1l-.1.59c.03 0 .2.08.77.08.15 0 1.02.04 1.02-.86 0-.84-.8-.67-.8-1 0-.18.12-.23.36-.23Zm1.42.08h.36L10.6 7h-.34l.07-.4h-.67c-.02.02-.4 2.23-.4 2.5 0 .4.22.57.53.57.25 0 .44-.07.51-.1l.08-.56-.17.02c-.23 0-.26-.13-.25-.22l.2-1.17Zm2.83-3.68h-1.2a8.9 8.9 0 0 0-.45.67h2.14a6.4 6.4 0 0 0-.49-.67Zm9.4 7.63a.35.35 0 0 0-.04-.05.05.05 0 0 0-.02 0 .07.07 0 0 0 .05-.03.06.06 0 0 0 0-.07.05.05 0 0 0-.02-.02.17.17 0 0 0-.06-.01h-.07v.22h.03v-.1h.02l.03.01.04.05.02.04h.04l-.03-.04Zm-.09-.08h-.04v-.07h.08a.04.04 0 0 1 .01.01.03.03 0 0 1 0 .02.03.03 0 0 1 0 .03h-.05ZM13.83 5.3h-2.89l-.34.68h3.5a6.5 6.5 0 0 0-.27-.68ZM4.5 6.4l-.67 1.97L3.8 6.4h-.98l-.54 3.21h.65l.4-2.42.07 2.42h.46l.87-2.42-.39 2.42h.7l.53-3.21H4.5Zm13.02.54c-.47 0-.82.15-.82.15l-.1.58s.3-.12.73-.12c.26 0 .44.03.44.23 0 .13-.02.17-.02.17l-.3-.01c-.58 0-1.19.24-1.19 1 0 .59.4.72.65.72.48 0 .68-.3.7-.3l-.03.25h.6l.26-1.86c0-.79-.69-.81-.92-.81Zm-.34 2.16c-.2 0-.26-.16-.26-.26 0-.18.1-.4.6-.4l.14.01c.01.11-.07.65-.48.65Zm5.2.22a.18.18 0 0 0-.07-.08.2.2 0 0 0-.3.18c0 .04 0 .07.02.1a.2.2 0 0 0 .08.08.2.2 0 0 0 .28-.08.2.2 0 0 0 0-.2Zm-.02.18a.17.17 0 0 1-.15.1.17.17 0 0 1-.17-.18c0-.03 0-.06.02-.09a.17.17 0 0 1 .3.17Z" fill="#ECEBEB"/><path d="M22.28 9.49a.28.28 0 0 0-.04-.04.05.05 0 0 0-.01-.02.07.07 0 0 0 .04-.02.06.06 0 0 0 0-.07.06.06 0 0 0-.02-.02.17.17 0 0 0-.05 0h-.08v.21h.03v-.09h.05a.22.22 0 0 1 .04.06l.02.03h.04l-.02-.04Zm-.08-.08h-.04v-.07h.04a.13.13 0 0 1 .03 0l.02.02v.04h-.05Zm-2.4-2.44c-.3 0-.52.41-.52.41l.06-.38h-.63l-.42 2.62h.7c.2-1.12.23-2.02.7-1.86.08-.43.16-.6.25-.78l-.13-.01Zm1.75-.56-.15.9s-.25-.35-.65-.35c-.62 0-1.13.74-1.13 1.6 0 .55.27 1.1.83 1.1a.84.84 0 0 0 .63-.29l-.03.24h.66l.51-3.2h-.67ZM20.69 9c-.24 0-.36-.2-.36-.53 0-.52.24-.87.54-.87.24 0 .36.17.36.56 0 .36-.17.84-.54.84Z" fill="#ECEBEB"/><path d="M24.05 0H.64A.64.64 0 0 0 0 .64v14.72c0 .35.28.64.64.64h23.41a.64.64 0 0 0 .64-.64V.64a.64.64 0 0 0-.64-.64Zm-1.58 11.62a.19.19 0 0 1-.07.08.2.2 0 0 1-.2 0 .2.2 0 0 1 .2-.36.19.19 0 0 1 .07.08.2.2 0 0 1 0 .2ZM22.93 8a6.34 6.34 0 0 1-10.59 4.7 6.31 6.31 0 0 1-4.24 1.64A6.34 6.34 0 0 1 1.76 8a6.34 6.34 0 0 1 6.3-6.34h.03c1.64 0 3.13.62 4.25 1.64A6.34 6.34 0 0 1 22.94 8Z" fill="#ECEBEB"/><path d="M11.7 12c.2.25.4.49.64.7l.02-.01c.23-.21.45-.44.64-.68h-1.3Zm.86-3.47s.09-.44.09-.62c0-.44-.22-.98-.97-.98-.67 0-1.18.73-1.18 1.55 0 .96.63 1.18 1.17 1.18.5 0 .71-.1.71-.1l.12-.66s-.38.17-.72.17c-.72 0-.6-.54-.6-.54h1.38Zm-.87-1c.38 0 .3.43.3.46h-.74c0-.04.07-.46.44-.46Zm4.03-.51c.34 0 .62.19.62.19l.11-.72s-.4-.16-.76-.16c-.78 0-1.54.67-1.54 1.94 0 .84.41 1.4 1.22 1.4.23 0 .59-.1.59-.1l.12-.73s-.33.17-.56.17c-.48 0-.67-.37-.67-.76 0-.8.41-1.23.87-1.23Zm-4.87 3.66c.1.23.24.46.37.67h2.25c.14-.21.26-.44.37-.67h-3Zm3.3-3.7c-.31 0-.53.4-.53.4l.06-.38h-.63l-.42 2.62h.69c.2-1.12.23-2.02.7-1.86.08-.43.16-.6.25-.78h-.13Z" fill="#ECEBEB"/></svg>