<svg width="45" height="13" fill="none" xmlns="http://www.w3.org/2000/svg"><path d="M7.96 1.96a1.8 1.8 0 0 0-.66-.71A3.1 3.1 0 0 0 6.25.86 8.59 8.59 0 0 0 4.82.75H2.29a.63.63 0 0 0-.58.46l-1.7 7.4c-.06.25.1.46.37.46h1.2a.62.62 0 0 0 .59-.46l.41-1.8a.62.62 0 0 1 .58-.45h.35c1.48 0 2.62-.3 3.45-.91.82-.6 1.23-1.41 1.23-2.4 0-.44-.07-.8-.23-1.1ZM5.35 4.38c-.36.26-.87.4-1.53.4h-.3c-.26 0-.42-.21-.36-.46l.36-1.58a.61.61 0 0 1 .58-.46h.4c.46 0 .81.08 1.05.24.23.15.35.4.34.72.01.49-.18.87-.54 1.14Zm37.08-3.05-.07.02-.1.01-.13-.02-.06-.06-.03-.1V.5h.4V.34h-.4V0h-.2v.34h-.14V.5h.13v.63l.1.3.27.1h.12l.12-.03v-.17Zm1.88-.91L44 .3l-.2.04-.22.15-.13-.14-.2-.05-.2.05-.19.12V.34h-.2V1.5h.2V.63l.17-.1.16-.04.13.02.07.07.03.12.01.14v.67h.2V.7l-.01-.06.17-.1.16-.05.13.03.07.06.03.12.01.14v.67h.2V.75l-.1-.33Zm-30.52 2.6a4.59 4.59 0 0 0-2.16-.39c-.49 0-.98.04-1.47.11l-.62.12c-.45.1-.53.56-.53.56l-.14.6c-.09.4.14.38.23.35.2-.06.31-.12.72-.22.4-.09.8-.15 1.13-.15.49 0 .86.05 1.1.16.25.1.37.28.37.55l-.02.17-.18.1c-.68.05-1.18.11-1.78.2a5.53 5.53 0 0 0-1.53.42c-.46.2-.8.47-1.04.82s-.35.77-.35 1.27c0 .46.17.85.5 1.14.32.3.75.44 1.27.44.32 0 .58-.03.76-.07l.58-.2.5-.28.45-.3v.01l-.04.2c-.05.24.1.43.32.46h1.15a.63.63 0 0 0 .52-.46l.88-3.81.04-.32.03-.29c0-.54-.23-.94-.7-1.2ZM11.84 7.3l-.19.25-.47.24a1.7 1.7 0 0 1-1.33 0l-.23-.45a.9.9 0 0 1 .18-.59l.51-.35c.22-.07.49-.13.8-.18l.9-.1.08.15-.25 1.03Zm23.91-4.29a4.61 4.61 0 0 0-2.16-.39c-.48 0-.97.04-1.46.12-.36.05-.4.07-.62.11-.46.1-.53.56-.53.56l-.15.61c-.08.39.14.37.24.34.2-.06.3-.12.71-.21.4-.1.81-.16 1.14-.15.48 0 .85.05 1.1.15a.55.55 0 0 1 .36.55l-.02.17-.17.11c-.7.04-1.19.1-1.78.2a5.53 5.53 0 0 0-1.54.41c-.46.2-.8.48-1.04.83a2.2 2.2 0 0 0-.35 1.26c0 .47.17.85.5 1.15.33.29.75.43 1.27.43.33 0 .58-.02.76-.07l.58-.2.5-.27.46-.3-.04.2c-.05.24.09.44.32.46H34.97a.62.62 0 0 0 .52-.46l.88-3.8.05-.32.02-.3c0-.53-.23-.93-.69-1.19Zm-1.94 4.3-.2.24-.47.25a1.71 1.71 0 0 1-1.32 0l-.23-.45c0-.25.05-.44.17-.6a1.24 1.24 0 0 1 .52-.34c.21-.07.48-.13.8-.18l.88-.1.09.15-.24 1.02Zm-3.9-5.33a1.87 1.87 0 0 0-.66-.72A2.97 2.97 0 0 0 28.2.88c-.4-.07-.88-.1-1.42-.1h-2.53a.63.63 0 0 0-.58.46l-1.7 7.4c-.06.25.11.46.37.46h1.2a.63.63 0 0 0 .59-.46l.41-1.8a.63.63 0 0 1 .58-.46h.35c1.48 0 2.63-.3 3.45-.9a2.86 2.86 0 0 0 1-3.5Zm-2.6 2.42c-.36.26-.87.4-1.52.4h-.3a.36.36 0 0 1-.38-.47l.37-1.57a.61.61 0 0 1 .58-.46h.39c.47 0 .81.08 1.05.24.24.15.35.4.35.72 0 .49-.18.87-.54 1.14Zm12.98-3.12c.05-.25-.1-.45-.37-.45h-1.08c-.22 0-.42.16-.52.37l-.06.09-.05.24-1.52 6.88-.05.21c-.04.23.1.4.31.44l.02.02h1.12c.22 0 .43-.16.52-.37l.06-.09L40.3 1.3ZM22 2.72h-1.45c-.26 0-.6.21-.76.46l-1.9 3.27h-.2l-.54-3.25c-.06-.25-.33-.47-.66-.47H15.4c-.26 0-.42.21-.36.46 0 0 .83 4.69.99 5.79.08.6-.01.71-.01.71l-1.07 1.87c-.16.25-.07.46.19.46h1.25c.26 0 .6-.2.76-.46l4.81-8.15s.47-.7.04-.69Z" fill="#ECEBEB"/></svg>