<svg width="24" height="24" xmlns="http://www.w3.org/2000/svg"><path d="m8.04 13.3.25-.94c-.34-.5-.7-2.15-.42-3.48.3-1.97 2.38-2.93 4.35-2.93 2.45 0 4.3 1.36 4.3 3.72 0 1.84-1.11 4.28-3.01 4.28-.68 0-1.54-.3-1.76-.6a1.34 1.34 0 0 1-.19-1.24c.34-1.07.77-2.36.82-3.21.04-.81-.53-1.34-1.27-1.34-.56 0-1.29.33-1.65 1.24-.3.76-.3 1.55.02 2.43.12.34-.54 2.57-.75 3.3-.53 1.8-1.25 4.08-1.1 5.35l.15 1.23.75-.98c1.03-1.36 2.1-4.86 2.39-5.71.84 1.09 2.6 1.12 2.8 1.12 2.51 0 5.36-2.5 5.28-5.97C18.93 6.53 16.7 4 12.7 4 8.88 4 6.67 6.04 6.12 8.6c-.5 2.39.61 4.2 1.92 4.7Z" fill="#ECEBEB"/></svg>