<svg width="15" height="15" viewBox="0 0 15 15" fill="none" xmlns="http://www.w3.org/2000/svg">
<path d="M14.375 6.87497H8.12499V0.625011C8.12499 0.279821 7.84517 0 7.49998 0C7.15479 0 6.87497 0.279821 6.87497 0.625011V6.87501H0.625011C0.279821 6.87497 0 7.15479 0 7.49998C0 7.84517 0.279821 8.12499 0.625011 8.12499H6.87501V14.375C6.87501 14.7202 7.15483 15 7.50002 15C7.84521 15 8.12503 14.7202 8.12503 14.375V8.12499H14.375C14.7202 8.12499 15 7.84517 15 7.49998C15 7.15479 14.7201 6.87497 14.375 6.87497Z" fill="#2A364E"/>
</svg>
