<svg width="58" height="59" fill="none" xmlns="http://www.w3.org/2000/svg"><path d="M35.54 28.36v-7.5h-1.36l-5.71 7.58.14.74c.03.1.08.17.16.24.08.06.17.1.28.1h5.2v3.08h1.3v-3.09H37c.11 0 .2-.03.25-.09a.33.33 0 0 0 .07-.22v-.84h-1.78Zm-1.27-5.3-.01.46v4.84h-4.21l4.27-5.81c-.03.17-.04.34-.05.5ZM27.18 31.36a.51.51 0 0 0-.38-.14h-3.93a4.15 4.15 0 0 0-1.32.2l3.1-3.17.93-.98c.29-.32.55-.65.77-1 .23-.34.4-.7.53-1.07a3.62 3.62 0 0 0-.07-2.59 3 3 0 0 0-1.86-1.67 4.42 4.42 0 0 0-2.8 0 3.4 3.4 0 0 0-1.99 1.67c-.22.41-.37.89-.44 1.42l.76.13a1.96 1.96 0 0 0 .19.02c.14 0 .26-.04.34-.1a.65.65 0 0 0 .2-.35 2.16 2.16 0 0 1 1.44-1.62 2.63 2.63 0 0 1 1.65 0 1.75 1.75 0 0 1 1.12 1.02c.11.26.17.56.17.9 0 .35-.05.67-.15.97-.1.3-.24.6-.42.9-.18.3-.4.6-.66.88-.26.3-.54.6-.85.92l-3.77 3.78a.85.85 0 0 0-.26.62v.5h7.84v-.88a.49.49 0 0 0-.14-.36Z" fill="#2A364E"/><path d="M47.43 20.21a.82.82 0 1 0-1.52.63A18.88 18.88 0 0 1 28.5 46.96 18.88 18.88 0 0 1 9.64 28.1a18.88 18.88 0 0 1 24.41-18.03l-4.32 2.5a.82.82 0 1 0 .82 1.42l5.68-3.28c.4-.23.53-.73.3-1.12l-3.28-5.68a.82.82 0 1 0-1.42.82l2.07 3.6A20.52 20.52 0 0 0 8 28.1c0 11.3 9.2 20.5 20.5 20.5a20.52 20.52 0 0 0 18.93-28.39Z" fill="#2A364E"/></svg>