<?xml version="1.0" encoding="UTF-8"?>
<svg xmlns="http://www.w3.org/2000/svg" xmlns:xlink="http://www.w3.org/1999/xlink" width="30px" height="30px" viewBox="0 0 30 30" version="1.1">
<path fill="#2a364e" d="M 25.042969 9.550781 L 15.667969 0.269531 C 15.296875 -0.0976562 14.703125 -0.0820312 14.332031 0.269531 L 4.953125 9.554688 C 4.585938 9.921875 4.585938 10.511719 4.953125 10.878906 C 5.324219 11.246094 5.925781 11.246094 6.292969 10.878906 L 14.054688 3.199219 L 14.054688 29.0625 C 14.054688 29.578125 14.476562 30 15 30 C 15.523438 30 15.949219 29.578125 15.949219 29.0625 L 15.949219 3.199219 L 23.707031 10.878906 C 24.074219 11.246094 24.675781 11.246094 25.046875 10.878906 C 25.414062 10.511719 25.414062 9.917969 25.042969 9.550781 Z M 25.042969 9.550781 "/>
</svg>
