<svg width="27" height="9" fill="none" xmlns="http://www.w3.org/2000/svg"><path d="M10.81.14 9.44 8.19h2.2L13 .14h-2.2ZM7.6.14l-2.15 5.5-.23-.83a8.61 8.61 0 0 0-3.04-3.34L4.15 8.2h2.32L9.92.14H7.6Z" fill="#ECEBEB"/><path d="M4.39.72C4.26.23 3.89.1 3.43.07H.03L0 .23c2.65.64 4.4 2.19 5.13 4.05L4.39.72Zm13.06.96A4.05 4.05 0 0 1 19.1 2l.2.1.3-1.75A5.67 5.67 0 0 0 17.62 0c-2.17 0-3.7 1.1-3.71 2.66-.02 1.15 1.09 1.8 1.92 2.19.85.39 1.14.64 1.14 1-.01.53-.68.78-1.31.78-.88 0-1.35-.12-2.07-.42l-.28-.13-.31 1.8c.51.23 1.46.42 2.44.43 2.3 0 3.8-1.08 3.82-2.75.01-.92-.57-1.61-1.84-2.19-.77-.37-1.24-.62-1.23-1 0-.33.4-.69 1.26-.69ZM25.22.15h-1.69c-.53 0-.92.14-1.15.67L19.12 8.2h2.3l.47-1.21h2.8l.28 1.2H27L25.22.16Zm-2.7 5.19.87-2.25.3-.77.14.7.51 2.32h-1.82Z" fill="#ECEBEB"/></svg>