<svg width="96" height="96" xmlns="http://www.w3.org/2000/svg">
  <path d="M0 0h96v96H0V0Z" fill="#ECEBEB" />
  <path d="M55.04 30.994a15.862 15.862 0 0 0-6.776-1.276 18.68 18.68 0 0 0-16.082 8.646 18.524 18.524 0 0 0 3.102 23.166 21.099 21.099 0 0 0 12.254 5.5c4.51 0 8.712-1.848 12.628-5.5a18.085 18.085 0 0 0 6.028-13.64A18.48 18.48 0 0 0 55.04 30.972v.022ZM42.61 15.55a33.704 33.704 0 0 1 20.108 3.124c2.42 1.342 3.784 2.024 4.026 2.024.22 0 .352-.99.352-2.948V15H81v66H67.096v-5.698l-4.004 2.024A33.748 33.748 0 0 1 47.736 81c-5.984 0-11.22-1.298-15.73-3.85A32.912 32.912 0 0 1 15 48.286a33.132 33.132 0 0 1 9.68-23.342 32.715 32.715 0 0 1 17.93-9.394Z" fill="#2A364E" />
</svg>