<svg width="40" height="40" fill="none" xmlns="http://www.w3.org/2000/svg"><path fill="#ECEBEB" d="M0 0h40v40H0z"/><path d="M23.2 12.27a7.21 7.21 0 0 0-3.08-.58 8.49 8.49 0 0 0-7.31 3.93 8.42 8.42 0 0 0 1.41 10.53 9.59 9.59 0 0 0 5.57 2.5c2.05 0 3.96-.84 5.74-2.5a8.22 8.22 0 0 0 2.74-6.2 8.4 8.4 0 0 0-5.07-7.69Zm-5.65-7.02a15.32 15.32 0 0 1 9.14 1.42c1.1.61 1.72.92 1.83.92.1 0 .16-.45.16-1.34V5H35v30h-6.32v-2.59l-1.82.92A15.34 15.34 0 0 1 19.88 35c-2.72 0-5.1-.59-7.15-1.75A14.96 14.96 0 0 1 5 20.13 15.06 15.06 0 0 1 9.4 9.52a14.87 14.87 0 0 1 8.15-4.27Z" fill="#2A364E"/></svg>